<svg class="site-title" version="1.0" id="Layer_1" xmlns="http://www.w3.org/2000/svg" xmlns:xlink="http://www.w3.org/1999/xlink" x="0px" y="0px" viewBox="0 0 2000 295.17" style="enable-background:new 0 0 2000 295.17;" xml:space="preserve">
<title>Green Wedding Shoes</title>
<g class="heart--solid">
<path d="M1973.78,66.83c-4.52-6.03-11.99-9.16-19.96-8.33c-7.7,0.79-14.78,4.54-19.96,10.56&#10;&#9;&#9;c-5.77,6.7-8.98,14.96-11.13,21.4c-2.23,6.68-3.91,12.88-5.07,18.79c-4.25-10.31-8.8-20.49-13.55-30.31l-0.83-1.72&#10;&#9;&#9;c-3.32-6.93-7.08-14.78-14.2-19.25c-4.44-2.78-10.13-3.73-14.85-2.49c-3.7,0.98-6.59,3.21-8.34,6.45c-2.72,5.04-0.84,10,0.68,13.99&#10;&#9;&#9;c1.39,3.66,2.57,7.69,3.62,12.33c1.13,5.02,1.98,10.2,2.8,15.21c0.57,3.49,1.16,7.1,1.85,10.65c3.34,17.34,10.77,33.19,18.09,47.95&#10;&#9;&#9;l1.02,2.06c3.3,6.63,6.71,13.49,9.59,20.42c0.66,1.58,1.24,3.19,1.83,4.8c0.84,2.31,1.71,4.71,2.79,7&#10;&#9;&#9;c2.16,4.61,5.82,7.64,10.05,8.3c0.57,0.09,1.12,0.13,1.65,0.13c4.54,0,7.65-3.1,10.34-6.53c2.67-3.41,5.34-7.12,7.91-11.04&#10;&#9;&#9;c4.98-7.56,9.54-15.28,13.95-22.75c4.06-6.88,8.74-15.11,12.59-23.9c3.49-7.98,6.42-16.71,8.71-25.97&#10;&#9;&#9;c1.86-7.53,3.89-16.45,4.86-25.56C1979.23,79.43,1977.78,72.17,1973.78,66.83z"/>
</g>
<g class="heart--empty">
<path d="M1896.93,25.87c-3.17-4.07-7.67-6.94-12.33-7.87c-4.95-0.99-10.1,0.32-14.12,3.59&#10;&#9;&#9;c-3.6,2.93-5.77,6.66-7.58,10.26c-0.69,1.37-1.36,2.8-2,4.28c-0.26-0.39-0.54-0.78-0.84-1.17c-2.41-3.25-4.52-5.81-6.65-8.06&#10;&#9;&#9;c-2.81-2.97-5.7-5.06-8.83-6.39c-7.05-3.02-15.13-1.89-19.51,2.62c-0.19,0.16-0.36,0.33-0.52,0.52l0,0&#10;&#9;&#9;c-4.38,5.21-2.42,11.77-0.22,16.9l1.18,2.75c4.03,9.41,8.19,19.14,12.48,28.65c2.73,6.04,5.26,10.8,7.97,14.99&#10;&#9;&#9;c2.89,4.47,6.4,8.93,10.41,13.27c0.71,0.77,1.69,1.19,2.74,1.19c0.2,0,0.4-0.02,0.61-0.05c1.44-0.21,2.8-1.18,3.39-2.4&#10;&#9;&#9;c1.75-3.61,4.69-6.98,7.54-10.24c0.62-0.71,1.24-1.42,1.85-2.13l12.82-15.01c5.89-6.87,11.97-13.97,14.84-22.42&#10;&#9;&#9;C1902.99,40.79,1901.78,32.09,1896.93,25.87z M1896.47,47.9c-2.62,7.74-8.46,14.55-14.11,21.14l-12.82,15.01&#10;&#9;&#9;c-0.6,0.7-1.21,1.4-1.82,2.1c-3.01,3.45-6.13,7.02-8.09,11.08c-0.09,0.13-0.39,0.29-0.4,0.34c-3.86-4.18-7.23-8.47-10-12.75&#10;&#9;&#9;c-2.6-4.02-5.05-8.62-7.69-14.48c-4.28-9.48-8.43-19.19-12.45-28.58l-1.17-2.75c-1.87-4.36-3.37-9.31-0.38-12.87l-1.49-1.25&#10;&#9;&#9;l1.68,1.07c3.81-3.91,10.6-3.91,15.33-1.89c2.63,1.12,5.1,2.92,7.53,5.49c2.02,2.13,4.03,4.58,6.34,7.7&#10;&#9;&#9;c1.05,1.42,1.9,2.74,2.6,4.05l1.99,3.72l1.53-3.94c1.02-2.63,2.14-5.16,3.32-7.51c1.61-3.21,3.52-6.52,6.56-8.99&#10;&#9;&#9;c3.12-2.54,7.09-3.56,10.9-2.79c3.76,0.75,7.41,3.1,10.03,6.45C1897.91,33.45,1898.88,40.79,1896.47,47.9z"/>
</g>
<g class="word--green">
<path d="M72.35,267.33c-28.17,0-54.36-12.96-47.08-35.31c2.38-7.41,8.73-12.7,16-12.7c1.98,0,3.97,0.26,5.95,1.06&#10;&#9;&#9;c9.13,3.44,13.23,11.9,9.65,21.29c-2.65,7.01-8.2,10.85-14.68,10.85c-2.12,0-4.23-0.4-6.48-1.19c6.88,6.74,18.91,10.05,31.48,10.05&#10;&#9;&#9;c21.95,0,45.5-10.05,45.5-28.7c0-13.62-16.4-12.3-34.65-12.3c-18.12,0-38.09-1.19-46.16-19.44c-5.82-13.09-2.38-23.54,6.61-29.89&#10;&#9;&#9;c-5.82-6.35-9.39-14.68-9.39-24.86c0-25.66,22.22-39.54,46.29-39.54c5.95,0,11.64,0.79,17.06,2.51&#10;&#9;&#9;c14.55-19.71,38.09-27.64,61.37-27.64c37.43,0,74.46,20.24,74.46,44.97c0,11.24-7.54,18.78-18.78,18.78&#10;&#9;&#9;c-11.37,0-18.91-7.54-18.91-18.78c0-10.85,9.39-20.9,23.54-19.57c-9.92-10.84-35.44-21.56-61.76-21.56&#10;&#9;&#9;c-20.76,0-42.06,6.61-56.74,24.86c15.08,5.69,26.19,17.85,26.19,35.97c0,25.52-22.22,39.28-46.42,39.28&#10;&#9;&#9;c-13.36,0-26.05-4.23-34.78-12.3c-2.64,2.78-2.78,6.08-0.66,8.99c16.93,23.28,98.26-12.96,92.97,43.91&#10;&#9;&#9;C130.28,254.76,100.26,267.33,72.35,267.33z M62.3,148.43c3.7,22.62,11.37,32.54,20.1,31.21c8.86-1.32,9.79-12.83,6.08-35.44&#10;&#9;&#9;c-3.7-22.75-11.37-33.06-20.1-31.74C59.52,113.91,58.6,125.68,62.3,148.43z M174.85,106.9v16.4c5.03-10.58,16.27-16.14,26.98-16.4&#10;&#9;&#9;c-6.08,2.38-12.3,6.88-12.7,16.53c-5.29-1.72-14.28,1.45-14.28,8.2v58.32c0,4.1,2.78,6.88,6.88,6.88h1.06v5.29h-48.93v-5.29h1.06&#10;&#9;&#9;c4.1,0,6.88-2.78,6.88-6.88v-68.24c0-4.1-2.78-6.88-6.88-6.88h-1.06v-5.29C149.85,109.55,158.85,106.9,174.85,106.9z"/>
<path d="M228.83,155.84c0-27.9,18.52-49.07,46.29-49.07c25.39,0,42.98,17.59,45.89,41.92l-58.99,9.39&#10;&#9;&#9;c3.04,18.65,14.15,25.79,25.92,25.79c13.09,0,26.85-8.99,30.42-20.5l2.51,0.66c-3.17,22.61-19.84,40.73-45.76,40.73&#10;&#9;&#9;C247.34,204.77,228.83,183.61,228.83,155.84z M261.1,152.79l26.19-4.23c-3.97-21.69-10.85-37.3-19.18-35.97&#10;&#9;&#9;C259.64,114.04,257.13,130.97,261.1,152.79z"/>
<path d="M372.33,106.77c25.39,0,42.98,17.59,45.89,41.92l-58.99,9.39c5.02,16.93,18.12,23.81,33.33,23.81&#10;&#9;&#9;c13.62,0,29.49-5.16,39.81-14.28v-46.02c0-4.1-2.78-6.88-6.88-6.88h-1.06v-5.29c16,0,25-2.51,41-2.51v8.2&#10;&#9;&#9;c9.92-5.82,19.18-8.2,27.24-8.2c18.78,0,30.95,13.23,30.95,27.38v55.68c0,4.1,2.78,6.88,6.88,6.88h1.06v5.29h-48.93v-5.29h1.06&#10;&#9;&#9;c4.1,0,6.88-2.78,6.88-6.88v-56.87c0-12.03-4.89-15.74-10.45-15.74c-4.89,0-10.32,3.04-13.09,5.69&#10;&#9;&#9;c-15.34,15.08-13.49,60.97-57.93,76.84c-8.73,3.17-18.38,4.76-27.91,4.76c-17.19,0-33.86-5.42-44.3-18.25&#10;&#9;&#9;C312.68,156.63,330.27,106.77,372.33,106.77z M358.31,152.79l26.19-4.23c-3.97-21.69-10.85-37.3-19.18-35.97&#10;&#9;&#9;C356.86,114.04,354.34,130.97,358.31,152.79z M424.44,197.63l1.06-0.79c3.17-2.38,6.88-2.78,6.88-6.88v-0.53&#10;&#9;&#9;c9.79-8.73,15.21-18.12,19.71-28.43c5.42-12.56,7.27-21.69,13.36-31.48v60.44c0,4.1,2.78,6.88,6.88,6.88h1.06v5.29h-48.93V197.63z"/>
</g>
<g class="word--wedding">
<path d="M570.6,109.55h51.05v5.29h-1.46c-2.78,0-4.1,1.72-3.17,4.36l11.11,32.14l10.18-29.23l-0.26-0.79&#10;&#9;&#9;c-1.32-3.97-5.03-6.48-9.13-6.48h-2.91v-5.29h51.31v5.29h-1.72c-2.78,0-3.97,1.72-3.04,4.36l11.11,32.01l11.11-32.01&#10;&#9;&#9;c0.93-2.65-0.4-4.36-3.17-4.36h-1.46v-5.29h21.69v5.29h-2.78c-4.1,0-7.8,2.64-9.13,6.48l-28.17,80.81h-5.82l-24.73-71.68l-25,71.68&#10;&#9;&#9;h-5.69l-27.91-80.81c-1.32-3.84-5.03-6.48-9.13-6.48h-2.91V109.55z"/>
<path d="M706.83,155.84c0-27.9,18.52-49.07,46.29-49.07c25.39,0,42.98,17.59,45.89,41.92l-58.99,9.39&#10;&#9;&#9;c3.04,18.65,14.15,25.79,25.92,25.79c13.09,0,26.85-8.99,30.42-20.5l2.51,0.66c-3.17,22.61-19.84,40.73-45.76,40.73&#10;&#9;&#9;C725.35,204.77,706.83,183.61,706.83,155.84z M739.1,152.79l26.19-4.23c-3.97-21.69-10.85-37.3-19.18-35.97&#10;&#9;&#9;C737.65,114.04,735.13,130.97,739.1,152.79z"/>
<path d="M803.91,155.84c0-35.84,17.72-49.07,34.25-49.07c9.26,0,17.72,2.78,23.41,8.33V82.04c0-4.1-2.78-6.88-6.88-6.88&#10;&#9;&#9;h-1.06v-5.29c16,0,25-6.48,41-6.48v126.57c0,4.1,2.78,6.88,6.88,6.88h1.06v5.29h-38.88l-2.12-5.82c-5.69,5.55-14.15,8.46-23.41,8.46&#10;&#9;&#9;C821.63,204.77,803.91,191.54,803.91,155.84z M852.45,118.14c-7.14,0-15.47,7.8-15.47,37.69c0,29.76,8.2,37.56,15.47,37.56&#10;&#9;&#9;c5.42,0,10.32-4.63,10.32-7.27v-60.84C862.77,122.64,857.87,118.14,852.45,118.14z"/>
<path d="M910.52,155.84c0-35.84,17.72-49.07,34.25-49.07c9.26,0,17.72,2.78,23.41,8.33V82.04c0-4.1-2.78-6.88-6.88-6.88&#10;&#9;&#9;h-1.06v-5.29c16,0,25-6.48,41-6.48v126.57c0,4.1,2.78,6.88,6.88,6.88h1.06v5.29H970.3l-2.12-5.82c-5.69,5.55-14.15,8.46-23.41,8.46&#10;&#9;&#9;C928.24,204.77,910.52,191.54,910.52,155.84z M959.06,118.14c-7.14,0-15.47,7.8-15.47,37.69c0,29.76,8.2,37.56,15.47,37.56&#10;&#9;&#9;c5.42,0,10.32-4.63,10.32-7.27v-60.84C969.37,122.64,964.48,118.14,959.06,118.14z"/>
<path d="M1020.83,196.84c4.1,0,6.88-2.78,6.88-6.88v-68.24c0-4.1-2.78-6.88-6.88-6.88h-1.06v-5.29c16,0,25-2.65,41-2.65&#10;&#9;&#9;v83.06c0,4.1,2.78,6.88,6.88,6.88h1.06v5.29h-48.94v-5.29H1020.83z M1060.77,84.42c0,9.92-6.61,16.53-16.53,16.53&#10;&#9;&#9;c-9.92,0-16.53-6.61-16.53-16.53c0-9.92,6.61-16.53,16.53-16.53C1054.16,67.89,1060.77,74.5,1060.77,84.42z"/>
<path d="M1077.97,196.84h1.06c4.1,0,6.88-2.78,6.88-6.88v-68.24c0-4.1-2.78-6.88-6.88-6.88h-1.06v-5.29&#10;&#9;&#9;c16,0,25-2.65,41-2.65v8.2c9.92-5.82,19.18-8.2,27.24-8.2c18.78,0,30.95,13.23,30.95,27.38v55.68c0,4.1,2.78,6.88,6.88,6.88h1.06&#10;&#9;&#9;v5.29h-48.93v-5.29h1.06c4.1,0,6.88-2.78,6.88-6.88v-56.87c0-12.03-5.56-15.87-11.37-15.87c-6.61,0-13.75,4.89-13.75,8.07v64.67&#10;&#9;&#9;c0,4.1,2.78,6.88,6.88,6.88h1.06v5.29h-48.93V196.84z"/>
<path d="M1239.32,267.33c-28.17,0-54.36-12.96-47.08-35.31c2.38-7.41,8.73-12.7,16-12.7c1.98,0,3.97,0.26,5.95,1.06&#10;&#9;&#9;c9.13,3.44,13.22,11.9,9.65,21.29c-2.65,7.01-8.2,10.85-14.68,10.85c-2.12,0-4.23-0.4-6.48-1.19c6.88,6.74,18.91,10.05,31.48,10.05&#10;&#9;&#9;c21.95,0,45.49-10.05,45.49-28.7c0-13.62-16.4-12.3-34.65-12.3c-18.12,0-38.09-1.19-46.16-19.44c-5.82-13.09-2.38-23.54,6.61-29.89&#10;&#9;&#9;c-5.82-6.35-9.39-14.68-9.39-24.86c0-25.66,22.22-39.54,46.29-39.54c3.7,0,7.27,0.26,10.84,0.93c5.56-14.68,21.03-33.2,36.5-29.23&#10;&#9;&#9;c8.33,2.12,15.21,8.6,14.42,18.65c-0.66,8.99-7.41,14.68-16.53,14.68c-9.92,0-16.53-6.61-16.53-16.66c0-2.25-0.93-3.31-2.25-3.31&#10;&#9;&#9;c-3.44,0-9.65,6.48-12.83,16.53c18.25,4.23,32.8,17.33,32.8,37.96c0,25.52-22.22,39.28-46.42,39.28c-13.36,0-26.05-4.23-34.78-12.3&#10;&#9;&#9;c-2.65,2.78-2.78,6.08-0.66,8.99c16.93,23.28,98.26-12.96,92.97,43.91C1297.25,254.76,1267.23,267.33,1239.32,267.33z&#10;&#9;&#9;M1229.27,148.43c3.7,22.62,11.37,32.54,20.1,31.21c8.86-1.32,9.79-12.83,6.08-35.44c-3.7-22.75-11.37-33.06-20.1-31.74&#10;&#9;&#9;C1226.5,113.91,1225.57,125.68,1229.27,148.43z"/>
</g>
<g class="word--shoes">
<path d="M1335.09,131.77c3.17-16.4,27.38-25,47.61-25c7.94,0,15.21,1.32,20.5,3.97c18.25,9.26,17.46,32.67-4.63,32.67&#10;&#9;&#9;c-17.85,0-21.69-24.07-7.54-30.15c-3.31-0.93-8.6-0.66-9.26-0.66c-12.43-0.13-21.29,5.55-18.38,14.15&#10;&#9;&#9;c6.61,19.44,57.66,17.85,57.66,47.21c0,19.97-26.05,30.95-49.86,30.95c-19.84,0-38.09-7.54-38.88-23.81&#10;&#9;&#9;c-0.53-11.64,7.94-17.32,16.4-17.32c8.07,0,16,5.16,16,15.34c0,9.92-6.08,16.53-15.87,16.53c5.03,3.17,14.28,5.03,22.75,3.97&#10;&#9;&#9;c10.58-1.32,19.84-6.61,17.99-15.61C1385.61,165.62,1329,162.45,1335.09,131.77z"/>
<path d="M1428.73,69.87c16,0,25-6.48,41-6.48v51.71c9.92-5.82,19.18-8.2,27.24-8.2c18.78,0,30.95,13.23,30.95,27.38&#10;&#9;&#9;v55.68c0,4.1,2.78,6.88,6.88,6.88h1.06v5.29h-48.93v-5.29h1.06c4.1,0,6.88-2.78,6.88-6.88v-56.87c0-12.03-5.56-15.87-11.37-15.87&#10;&#9;&#9;c-6.61,0-13.75,4.89-13.75,8.07v64.67c0,4.1,2.78,6.88,6.88,6.88h1.06v5.29h-48.94v-5.29h1.06c4.1,0,6.88-2.78,6.88-6.88V82.04&#10;&#9;&#9;c0-4.1-2.78-6.88-6.88-6.88h-1.06V69.87z"/>
<path d="M1541.82,155.84c0-27.9,18.51-49.07,46.29-49.07c27.91,0,46.42,21.16,46.42,49.07&#10;&#9;&#9;c0,27.77-18.52,48.94-46.42,48.94C1560.33,204.77,1541.82,183.61,1541.82,155.84z M1575.01,158.08&#10;&#9;&#9;c3.7,22.62,11.37,42.19,20.23,40.87c8.86-1.32,9.79-22.48,6.08-45.1c-3.7-22.75-11.51-42.59-20.24-41.26&#10;&#9;&#9;C1572.23,114.04,1571.31,135.34,1575.01,158.08z"/>
<path d="M1752.78,151.46c6.14-16.75,19.41-32.83,26.14-35.7c3.31-1.98,8.03-3.11,13.48-3.11c0.13,0,0.26,0,0.4,0&#10;&#9;&#9;c0.26,0,1.06,0,2.24,0c1.98,0,4.89,0.13,7,0.66c-14.13,6.08-10.3,30.11,7.53,30.11c22.06,0,22.85-23.38,4.62-32.62&#10;&#9;&#9;c-5.28-2.64-12.55-3.96-20.47-3.96c-20.34,0-44.38,8.59-47.55,24.96c-1.32,6.8,0.48,12.22,4.04,16.77&#10;&#9;&#9;c-3.85,11.61-25.35,35.26-50.48,35.26c-11.76,0-22.85-7.13-25.89-25.75l58.9-9.38c-2.91-24.3-20.47-41.87-45.83-41.87&#10;&#9;&#9;c-27.74,0-46.23,21.13-46.23,49c0,27.74,18.49,48.87,46.23,48.87c33.46,0,56.26-29.71,65.83-53.26&#10;&#9;&#9;C1752.78,151.45,1752.78,151.45,1752.78,151.46z M1679.94,112.65c0.27,0,0.66-0.13,0.92-0.13c7.93,0,14.4,15.19,18.23,36.06&#10;&#9;&#9;l-26.15,4.23C1668.97,131.01,1671.48,114.1,1679.94,112.65z"/>
<path d="M1774.95,126.78c-0.55-1.6-0.69-3.1-0.46-4.49c-6.36,6.34-14.96,18.21-19.38,30.82&#10;&#9;&#9;c14.8,12.59,43.23,18.01,46,30.86c1.85,8.98-7.4,14.4-17.96,15.59c-1.58,0.26-3.3,0.26-4.89,0.26c-7,0-13.74-1.72-17.83-4.23&#10;&#9;&#9;c9.77,0,15.85-6.6,15.85-16.51c0-10.17-7.93-15.32-15.85-15.32c-8.45,0-17.04,5.68-16.51,17.3c0.66,16.25,19.02,23.77,38.83,23.77&#10;&#9;&#9;c23.78,0,49.79-10.96,49.79-30.91C1832.53,144.61,1781.55,146.2,1774.95,126.78z"/>
</g>
</svg>