<svg class="icon w-48 xl:w-52 mt-2" viewBox="0 0 146 26" fill="none" xmlns="http://www.w3.org/2000/svg">
<g>
<path fill-rule="evenodd" clip-rule="evenodd" d="M102.576 17.8442C102.365 18.7502 101.803 20.3879 101.451 21.1894C101.135 21.8517 99.6934 24.5 98.8849 24.6045C98.498 24.43 98.3225 24.1515 98.3574 23.3849C98.3574 23.2452 98.4277 23.0364 98.3925 22.8274C98.3925 22.3741 98.6037 21.8517 98.7443 21.4684C99.0607 20.5624 99.5526 19.9698 100.115 19.2032L101.17 17.9836L102.857 16.6595C102.752 16.9731 102.681 17.4958 102.576 17.8442ZM68.6545 6.31012C68.4435 6.79797 67.5999 7.70367 67.2483 8.366C67.1429 8.64477 67.1077 8.54023 66.9671 8.74903L66.6859 9.16745C66.5099 9.41136 66.545 9.34167 66.3341 9.5159C66.088 9.75981 65.6662 10.5613 64.9277 10.8052C64.8225 10.4567 64.9277 10.7009 64.8928 10.4913C64.8225 9.23713 65.3498 8.01755 65.9123 6.83254C66.3693 5.8917 66.932 4.21913 68.1623 4.04491C68.9357 4.01033 69.1114 4.07976 69.6739 4.60244C69.5687 5.05543 68.9708 5.64779 68.6545 6.31012ZM58.601 11.9551C58.5658 12.1641 58.4955 12.3735 58.4601 12.5823C58.3549 12.8611 58.2495 13.1747 58.1088 13.4885C58.0034 13.8021 57.8628 14.1158 57.687 14.3942C57.4761 14.743 57.2652 15.0911 57.054 15.4048C56.6324 15.9623 56.1752 16.4852 55.7182 16.8337L55.1557 17.4258C55.0151 17.5654 54.6988 17.7048 54.3472 17.8791C53.1169 18.4366 52.449 18.2969 52.2029 17.8442C51.7459 17.1125 52.7302 15.1957 53.2926 14.4991C53.5036 14.22 54.0309 13.6973 54.5933 13.1747C55.0151 12.7914 55.4018 12.4778 55.7888 12.199C56.1752 11.9202 56.5619 11.6415 56.9488 11.3627C57.3352 11.1188 57.7219 10.84 58.144 10.5264C58.2846 10.4567 58.3901 10.4219 58.4601 10.4219C58.5307 10.4567 58.5658 10.5613 58.601 10.7009C58.6361 10.8749 58.6361 11.0145 58.6361 11.1536C58.6361 11.2584 58.6713 11.3627 58.6713 11.4672C58.6713 11.6415 58.601 11.7809 58.601 11.9551ZM108.066 11.036C108.012 10.9277 107.929 10.8197 107.848 10.7652C107.738 10.7382 107.575 10.7652 107.493 10.8197C107.493 10.8465 107.465 10.9006 107.411 10.9548C107.314 11.1142 107.176 11.3107 107.038 11.4975C107.053 11.4595 107.015 11.4828 106.877 11.6265L106.056 12.4778L106.619 8.22663C106.619 8.05241 106.654 7.8779 106.654 7.70367C106.759 7.07645 106.935 4.98574 107.005 4.25399C107.111 3.38286 107.322 2.05846 106.689 1.60573C106.408 1.43151 106.056 1.32697 105.74 1.25701C105.669 1.22244 105.564 1.22244 105.459 1.22244C105.388 1.25701 105.283 1.25701 105.212 1.29213C105.177 1.32697 105.107 1.36182 105.072 1.39666C104.263 2.05846 103.771 3.17378 103.314 4.11459L102.576 5.50868C101.697 7.07645 102.119 6.34498 101.486 7.6691C101.381 7.94758 101.24 8.05241 101.1 8.40086C100.889 8.78414 100.186 10.2477 99.9044 10.4567C99.7637 9.23713 99.9044 7.5643 100.045 6.37981C100.115 5.8917 100.502 3.48711 100.643 2.54656C100.677 2.40718 100.677 2.2678 100.713 2.16326C100.748 1.81454 100.713 1.84965 100.502 1.60573C100.15 1.15274 99.9747 0.978519 99.2362 0.873713C98.9198 0.804291 98.6386 0.839136 98.5686 1.15274C98.498 1.46609 98.3574 1.91934 98.2873 2.05846C98.2873 2.12815 98.2519 2.1981 98.2168 2.2678C98.1819 2.51171 98.1819 2.61599 98.1465 2.86018C98.0761 3.348 97.9004 4.53275 97.7949 4.91603L97.6895 5.43899C97.5704 6.12733 97.4752 6.8379 97.42 7.55197C97.4041 7.56832 97.3905 7.5817 97.3739 7.59913C97.1627 7.80847 96.9518 7.91301 96.706 7.91301C96.4948 7.94758 96.319 7.91301 96.1433 7.80847C95.6511 7.5643 95.5808 7.18125 95.4402 6.69315L95.4753 5.54325C95.4753 5.29934 95.5105 5.15997 95.5105 4.74181C95.5457 4.35824 95.616 3.52223 95.4402 3.20863C95.1238 2.58141 94.4208 2.6511 93.8935 2.75564C93.6474 2.92958 93.2959 5.36903 93.1904 5.96141C93.0498 6.83254 92.6631 8.05241 92.4171 8.92354C92.2061 9.62016 91.9952 10.3173 91.7843 11.0145C91.5031 11.9899 91.0458 13.767 90.6243 14.6036C90.5539 14.7778 90.4133 15.0566 90.2376 15.3005C90.097 15.5444 89.9563 15.7883 89.8506 15.8232C89.7452 15.858 89.5345 15.7186 89.4994 15.3702C89.3233 14.2897 89.2882 11.0839 89.2882 10.3522C89.253 10.1083 89.2882 9.86435 89.2882 9.65529C89.2882 9.41136 89.2181 9.23713 89.2181 8.95837C89.1827 8.05241 89.1124 6.27501 89.1124 5.36903C89.1124 4.88146 89.253 4.4979 88.8663 4.04491C88.6557 3.80074 88.4797 3.73131 88.3391 3.69645C86.9329 3.41769 86.8275 3.27832 86.722 4.32393C86.684 4.78444 86.6648 5.38833 86.6566 6.03699C86.0249 7.16197 86.3625 6.7036 85.4927 7.59913C85.2818 7.80847 85.0709 7.91301 84.8248 7.91301C84.6139 7.94758 84.4381 7.91301 84.2623 7.80847C83.7702 7.5643 83.6999 7.18125 83.5593 6.69315L83.5944 5.54325C83.5944 5.29934 83.6296 5.15997 83.6296 4.74181C83.6645 4.35824 83.7351 3.52223 83.5593 3.20863C83.2429 2.58141 82.5396 2.6511 82.0126 2.75564C81.7662 2.92958 81.4147 5.36903 81.3095 5.96141C81.1686 6.83254 80.7819 8.05241 80.5359 8.92354C80.325 9.62016 80.114 10.3173 79.9031 11.0145C79.6219 11.9899 79.1649 13.767 78.7431 14.6036C78.6728 14.7778 78.5322 15.0566 78.3564 15.3005C78.2158 15.5444 78.0752 15.7883 77.9697 15.8232C77.8643 15.858 77.6533 15.7186 77.6182 15.3702C77.4424 14.2897 77.4073 11.0839 77.4073 10.3522C77.3721 10.1083 77.4073 9.86435 77.4073 9.65529C77.4073 9.41136 77.337 9.23713 77.337 8.95837C77.3018 8.05241 77.2315 6.27501 77.2315 5.36903C77.2315 4.88146 77.3721 4.4979 76.9854 4.04491C76.7745 3.80074 76.5988 3.73131 76.4581 3.69645C75.0518 3.41769 74.9463 3.27832 74.8411 4.32393C74.7616 5.29612 74.7618 6.90197 74.7818 8.23091C74.6056 8.69543 74.313 9.21677 74.1386 9.62018L73.1894 11.7809C72.9434 12.2339 72.4161 13.0701 71.8185 13.7322C71.3964 14.1854 70.9748 14.5336 70.623 14.6382C69.92 13.6973 70.2715 11.7111 70.5176 10.7703C70.9394 9.30656 71.1857 7.80847 71.5372 6.31012C71.713 5.75259 71.7482 5.29934 71.9588 4.74181C72.0294 4.60244 72.0997 4.32393 72.17 4.07976C72.2052 3.87068 72.3458 3.52223 72.3458 3.348C72.3458 3.20863 72.3106 3.03441 72.17 2.9647C72.0645 2.86015 72.0294 2.72078 71.9239 2.61599C71.6776 2.40718 71.5724 2.33749 71.3612 2.2678C71.1506 2.16326 70.9394 2.1981 70.7636 2.23295C70.623 2.2678 70.5176 2.30264 70.377 2.47687C70.3069 2.58141 70.1663 2.99955 70.1311 3.10409L70.0957 3.2432C69.3575 3.03441 69.6387 3.13892 68.7951 3.03441C67.9866 3.03441 66.8968 3.10409 66.1234 3.38286C65.8422 3.52223 65.7368 3.62677 65.5258 3.76642C64.7994 4.18618 64.4892 4.60753 64.0361 5.29424C63.5686 5.61134 63.1565 5.82925 62.7844 6.06621C62.5386 6.20532 62.2923 6.44924 62.0111 6.58863C60.851 7.25096 60.5695 7.73878 59.3743 8.366C58.6361 8.67962 58.8471 8.43543 57.7925 7.8779C57.2652 7.59913 55.894 6.79797 55.4721 6.41441C55.0151 5.96141 54.6636 5.02057 54.9097 4.39336C55.0503 4.01033 55.2964 3.62677 55.5776 3.27832C55.7533 3.03441 55.9643 2.79047 56.2103 2.58141C56.4564 2.37206 56.7728 2.23295 57.0894 2.05846C57.2652 1.95419 59.1634 1.1179 59.4798 1.25701C59.6907 1.36182 59.6907 1.64058 59.4798 2.09357C59.304 2.54656 59.0931 3.06924 58.9174 3.41769C58.6361 3.87068 58.3549 4.14945 58.0737 4.67212C57.7925 5.19508 57.9331 5.47357 58.2846 5.64779C59.2337 6.10078 59.6204 5.68291 60.0423 5.05543C60.218 4.84635 60.3938 4.67212 60.5344 4.46304C61.0619 3.76642 61.5541 2.92958 61.7299 2.09357C61.8002 1.64058 61.6244 1.22244 61.3432 0.908558C60.8159 0.281611 60.0774 -0.0319978 59.3743 0.00257962C58.0034 0.107384 56.8782 0.351033 55.5776 1.15274C55.2263 1.36182 54.9097 1.60573 54.6285 1.81454C54.5581 1.84965 54.4527 1.91934 54.3824 1.98903C53.9605 2.37207 53.7145 2.58141 53.3981 2.99955C53.2223 3.27832 53.1169 3.52223 53.0114 3.80074C52.906 4.14945 52.8357 4.53275 52.8708 4.88146C52.9411 5.40388 53.152 5.92656 53.5739 6.41441C53.7496 6.62374 54.1363 6.90249 54.523 7.14614C55.2263 7.59913 55.9291 8.05241 56.597 8.50512C56.8431 8.6796 57.0894 8.81874 57.3706 8.99322C57.6164 9.2023 57.687 9.30656 57.687 9.37624C57.6519 9.48104 57.4761 9.55075 57.1595 9.75981L56.2457 10.4567L55.2263 11.2584C55.1557 11.3279 55.0503 11.3976 54.9448 11.4672C53.9254 12.3035 52.2381 14.1158 51.6756 15.0566C51.1132 15.9623 50.6913 17.0428 50.8319 17.8094C50.9022 18.332 51.6756 19.3777 53.152 19.3777C54.0309 19.4122 54.7691 19.3077 55.4018 19.0986C56.2806 18.8201 56.984 18.332 57.6164 17.7745C58.0737 17.3564 58.4955 16.9382 58.9877 16.4852C59.4095 15.9623 59.7962 15.3702 60.0774 14.7778C60.3586 14.2549 60.4992 13.767 60.6399 13.2446C60.7456 12.7217 60.851 12.199 60.851 11.7111C60.8159 11.5369 60.8159 11.3627 60.7807 11.1536C60.7456 10.9446 60.675 10.7009 60.6047 10.4913C60.4641 10.1777 60.3235 9.86435 60.1126 9.58558C60.0071 9.41136 59.972 9.34167 59.972 9.30656C60.0071 9.23713 60.218 9.02808 60.4992 8.88868C60.7104 8.74903 60.9565 8.57508 61.2026 8.40086C61.7298 7.9827 61.8705 7.9827 62.222 7.6691C62.4496 7.48844 62.8825 7.13409 63.284 6.83952C62.9694 7.79964 62.7483 8.94444 62.7483 9.48104C62.7483 10.1083 62.854 10.5961 63.1 11.0488C63.4865 11.746 63.3459 11.746 64.014 12.0248C64.5765 12.2687 65.3149 12.3035 65.9125 11.816L68.3381 8.92354C68.549 8.64477 68.3029 8.81874 68.549 8.6796L68.1272 10.84C67.9866 12.0945 67.8108 13.6625 68.4435 14.7778C68.6896 15.2308 69.5687 15.8929 70.0957 15.8929C70.9748 15.8929 71.6425 15.5093 72.2755 14.8821C72.4864 14.6733 72.8028 14.3597 72.9434 14.1158L73.8925 12.6871L74.8391 10.5417C74.8788 11.79 74.9378 13.3355 75.0169 14.22C75.1223 15.2308 75.4036 16.4852 76.3524 17.1125C76.8448 17.4258 77.2667 17.67 77.7588 17.5654C79.2001 17.2867 79.5164 15.858 80.114 14.7778C80.7468 13.1398 81.5202 9.62018 82.118 7.59913C82.2938 7.84304 82.4344 8.05241 82.6102 8.22663C82.8914 8.50512 83.1375 8.7142 83.4187 8.85385C83.6296 8.95836 83.9108 8.95837 84.1217 8.99322C84.5084 9.09776 84.8951 9.09776 85.2818 8.95837C85.5982 8.85385 85.8794 8.6796 86.1606 8.43543C86.3343 8.2947 86.4998 8.13012 86.6592 7.95026C86.6661 8.48931 86.6764 8.99564 86.6869 9.41136C86.722 10.6658 86.7923 13.0356 86.8978 14.22C87.0032 15.2308 87.2845 16.4852 88.2336 17.1125C88.7257 17.4258 89.1476 17.67 89.6397 17.5654C91.0812 17.2867 91.3976 15.858 91.9952 14.7778C92.628 13.1398 93.4013 9.62018 93.9989 7.59913C94.1747 7.84304 94.3153 8.05241 94.4911 8.22663C94.7723 8.50512 95.0184 8.7142 95.2996 8.85385C95.5105 8.95836 95.7917 8.95837 96.0026 8.99322C96.3893 9.09776 96.776 9.09776 97.1627 8.95837C97.2335 8.93504 97.302 8.90665 97.3695 8.87663C97.37 8.98519 97.37 9.09374 97.3731 9.2023C97.4082 10.2128 97.5137 11.2584 97.6543 11.5021C98.2519 12.6871 99.1661 12.5474 99.7637 12.6171C99.9747 12.652 100.045 12.5474 100.186 12.4081C100.361 12.2339 100.643 12.1641 100.748 11.9551C101.205 11.3279 101.697 10.387 102.049 9.69012C102.26 9.30656 102.26 9.09776 102.435 8.7142C102.787 8.01755 104.088 5.3342 104.861 4.01033C104.826 4.4979 104.545 6.0311 104.509 6.31012C104.439 6.65857 104.404 6.90249 104.369 7.28554C104.334 7.8779 104.123 8.67962 104.088 9.30656C104.088 9.96889 103.736 12.0945 103.631 12.7568C103.525 13.3837 103.349 14.1506 103.314 14.7081C103.244 14.9172 101.697 15.9971 101.521 16.2065C101.346 16.3459 101.24 16.4504 101.064 16.6243C100.748 16.8683 100.361 17.0428 100.115 17.3564C99.2362 18.4366 98.7089 18.9244 98.0061 20.2137C98.0061 20.2488 97.7249 20.7015 97.5137 21.2591C97.3379 21.7471 97.2325 22.3047 97.2325 22.3395C97.127 23.0713 96.9161 24.047 97.3731 24.8832C97.5489 25.162 97.7598 25.3362 98.1465 25.5801C98.3574 25.7195 98.6037 25.9634 98.955 25.9634C101.029 25.9634 102.365 23.7682 103.349 22.1999C103.947 21.0151 104.861 19.2032 105.037 17.9139L105.423 16.4156C105.494 16.0668 105.494 15.8232 105.564 15.5093L105.74 14.8821C105.951 14.4642 106.051 14.1723 106.357 13.8391C106.395 13.7973 106.418 13.7735 106.432 13.7606C106.534 13.5901 106.634 13.392 106.785 13.243L107.029 12.9034C107.165 12.6868 107.192 12.7139 107.301 12.4702C107.329 12.3622 107.656 12.0103 107.902 11.5503C107.957 11.4689 107.984 11.415 108.012 11.3608C108.012 11.3064 108.12 11.1172 108.066 11.036Z" fill="#FF8395"/>
<path d="M4.75467 8.75244L4.85089 8.6921C4.91104 8.66193 4.99525 8.60162 5.09147 8.5111C5.18769 8.42059 5.28992 8.31201 5.39215 8.17926C5.48837 8.05255 5.57258 7.88363 5.63873 7.66641C5.69885 7.44922 5.73495 7.21391 5.73495 6.96053C5.73495 6.33305 5.50641 5.80813 5.05537 5.37975C4.60434 4.9514 4.03304 4.73418 3.33542 4.73418H0.00976562V13.3861H3.52186C4.30364 13.3861 4.94111 13.1568 5.43425 12.6862C5.92136 12.2217 6.16795 11.6304 6.16795 10.9124C6.16795 10.6228 6.11381 10.3453 6.01158 10.0798C5.90933 9.81432 5.79507 9.60918 5.67481 9.45835C5.54851 9.31355 5.40418 9.17477 5.24181 9.04807C5.07341 8.92741 4.96518 8.84898 4.90503 8.81881C4.84489 8.79468 4.79078 8.77054 4.75467 8.75244ZM0.935898 12.5233V9.18685H3.52186C4.02701 9.18685 4.44197 9.3558 4.7607 9.69364C5.07944 10.0315 5.24181 10.4358 5.24181 10.9124C5.24181 11.383 5.07944 11.7692 4.76671 12.0708C4.454 12.3725 4.03904 12.5233 3.52186 12.5233H0.935898ZM3.33542 5.60299C3.79246 5.60299 4.1533 5.7297 4.41792 5.98311C4.68252 6.23652 4.81482 6.56232 4.81482 6.96053C4.81482 7.40096 4.68252 7.74485 4.41792 7.99826C4.1533 8.25167 3.79246 8.37233 3.33542 8.37233H0.935898V5.60299H3.33542Z" fill="#00A7BD"/>
<path d="M11.6465 12.644C10.9309 12.644 10.3235 12.3906 9.81833 11.8717C9.31318 11.3589 9.0606 10.7314 9.0606 9.98929V4.73418H8.14049V9.98929C8.14049 10.9426 8.48327 11.7692 9.18086 12.463C9.87247 13.1629 10.6964 13.5068 11.6465 13.5068C12.5967 13.5068 13.4206 13.1629 14.1122 12.469C14.8098 11.7752 15.1526 10.9486 15.1526 9.98929V4.73418H14.2265V9.98929C14.2265 10.7314 13.9739 11.3589 13.4687 11.8717C12.9636 12.3906 12.3562 12.644 11.6465 12.644Z" fill="#00A7BD"/>
<path d="M17.6183 4.73418V13.3861H20.3305C21.5814 13.3861 22.6459 12.9638 23.5179 12.1131C24.3838 11.2684 24.8229 10.2487 24.8229 9.06014C24.8229 7.87761 24.3838 6.85794 23.5179 6.00723C22.6459 5.16256 21.5814 4.73418 20.3305 4.73418H17.6183ZM20.3305 5.60299C21.3409 5.60299 22.1888 5.94086 22.8744 6.61058C23.56 7.28632 23.9027 8.10085 23.9027 9.06619C23.9027 10.0315 23.56 10.846 22.8744 11.5158C22.1888 12.1915 21.3409 12.5233 20.3305 12.5233H18.5444V5.60299H20.3305Z" fill="#00A7BD"/>
<path d="M26.3023 9.06014C26.3023 10.297 26.7293 11.3468 27.5953 12.2096C28.4551 13.0784 29.5017 13.5068 30.7344 13.5068C31.1675 13.5068 31.5945 13.4464 32.0094 13.3197C32.4243 13.193 32.7612 13.0482 33.0258 12.8853C33.2903 12.7285 33.5369 12.5414 33.7655 12.3363C33.9939 12.1312 34.1383 11.9924 34.2104 11.9139C34.2825 11.8355 34.3308 11.7692 34.367 11.7209V8.93949H31.4742V9.80225H33.4468V11.4735L33.3445 11.5942C33.2783 11.6787 33.17 11.7812 33.0199 11.8898C32.8633 11.9984 32.6889 12.1131 32.4905 12.2277C32.286 12.3423 32.0335 12.4389 31.7207 12.5233C31.408 12.6078 31.0772 12.644 30.7344 12.644C29.7483 12.644 28.9124 12.3001 28.2388 11.6123C27.5591 10.9245 27.2225 10.0738 27.2225 9.06014C27.2225 8.04653 27.5591 7.19581 28.2388 6.508C28.9124 5.82021 29.7483 5.47629 30.7344 5.47629C31.1013 5.47629 31.4562 5.5306 31.7928 5.63919C32.1297 5.74779 32.4002 5.86848 32.6047 6.0012C32.8092 6.13393 33.0016 6.27873 33.182 6.44768C33.3565 6.61661 33.4707 6.73729 33.5189 6.80365C33.5669 6.87002 33.6031 6.92431 33.6272 6.96053L34.2466 6.40544L34.1083 6.21839C34.018 6.09774 33.8738 5.94691 33.6752 5.76589C33.4769 5.59094 33.2482 5.41597 32.9837 5.241C32.7191 5.07205 32.3884 4.92123 31.9853 4.80055C31.5883 4.67989 31.1675 4.61353 30.7285 4.61353C29.5018 4.61353 28.4551 5.04793 27.5891 5.91069C26.7293 6.7795 26.3023 7.82934 26.3023 9.06014Z" fill="#00A7BD"/>
<path d="M37.5723 12.5233V9.3075H41.5715V8.44474H37.5723V5.60299H42.5576V4.73418H36.646V13.3861H42.6841V12.5233H37.5723Z" fill="#00A7BD"/>
<path d="M44.2167 4.73418V5.60299H46.9291V13.3861H47.8493V5.60299H50.5614V4.73418H44.2167Z" fill="#00A7BD"/>
<path d="M115.345 8.75244L115.441 8.6921C115.502 8.66193 115.586 8.60162 115.682 8.5111C115.778 8.42059 115.88 8.31201 115.983 8.17926C116.079 8.05255 116.163 7.88363 116.229 7.66641C116.289 7.44922 116.326 7.21391 116.326 6.96053C116.326 6.33305 116.097 5.80813 115.646 5.37975C115.195 4.9514 114.624 4.73418 113.926 4.73418H110.6V13.3861H114.112C114.894 13.3861 115.532 13.1568 116.025 12.6862C116.512 12.2217 116.758 11.6304 116.758 10.9124C116.758 10.6228 116.704 10.3453 116.602 10.0798C116.5 9.81432 116.386 9.60918 116.265 9.45835C116.139 9.31355 115.995 9.17477 115.832 9.04807C115.664 8.92741 115.556 8.84898 115.495 8.81881C115.435 8.79468 115.381 8.77054 115.345 8.75244ZM111.526 12.5233V9.18685H114.112C114.617 9.18685 115.032 9.3558 115.351 9.69364C115.67 10.0315 115.832 10.4358 115.832 10.9124C115.832 11.383 115.67 11.7692 115.357 12.0708C115.044 12.3725 114.629 12.5233 114.112 12.5233H111.526ZM113.926 5.60299C114.383 5.60299 114.744 5.7297 115.008 5.98311C115.273 6.23652 115.405 6.56232 115.405 6.96053C115.405 7.40096 115.273 7.74485 115.008 7.99826C114.744 8.25167 114.383 8.37233 113.926 8.37233H111.526V5.60299H113.926Z" fill="#00A7BD"/>
<path d="M118.851 4.73418V13.3861H119.777V9.92895H122.237L124.15 13.3861H125.196L123.163 9.80225L123.35 9.74193C123.47 9.70571 123.614 9.62125 123.795 9.50057C123.969 9.37992 124.143 9.23511 124.318 9.06014C124.486 8.89122 124.637 8.64988 124.763 8.34216C124.883 8.0405 124.949 7.70263 124.949 7.32857C124.949 6.59249 124.697 5.97103 124.192 5.47629C123.686 4.98157 123.055 4.73418 122.297 4.73418H118.851ZM122.297 5.60299C122.82 5.60299 123.241 5.75987 123.554 6.07362C123.867 6.38734 124.023 6.80365 124.023 7.33459C124.023 7.86553 123.867 8.28184 123.554 8.59557C123.241 8.90932 122.82 9.06619 122.297 9.06619H119.777V5.60904L122.297 5.60299Z" fill="#00A7BD"/>
<path d="M127.162 13.3861H128.088V4.73418H127.162V13.3861Z" fill="#00A7BD"/>
<path d="M130.674 4.73418V13.3861H133.387C134.638 13.3861 135.702 12.9638 136.574 12.1131C137.44 11.2684 137.879 10.2487 137.879 9.06014C137.879 7.87761 137.44 6.85794 136.574 6.00723C135.702 5.16256 134.638 4.73418 133.387 4.73418H130.674ZM133.387 5.60299C134.397 5.60299 135.245 5.94086 135.931 6.61058C136.616 7.28632 136.959 8.10085 136.959 9.06619C136.959 10.0315 136.616 10.846 135.931 11.5158C135.245 12.1915 134.397 12.5233 133.387 12.5233H131.601V5.60299H133.387Z" fill="#00A7BD"/>
<path d="M140.838 12.5233V9.3075H144.837V8.44474H140.838V5.60299H145.823V4.73418H139.912V13.3861H145.95V12.5233H140.838Z" fill="#00A7BD"/>
</g>

</svg>