<svg height='100px' width='100px'  fill="#000000" xmlns="http://www.w3.org/2000/svg" viewBox="0 0 95 95" x="0px" y="0px"><title>single-line</title><g><path d="M52.91,51.28c-1.42-.5-2.91-.94-4.48-1.4l-.58-.17a58.69,58.69,0,0,0,6.39-2.5c5.62-2.66,10.91-8.88,9.24-16.28S54.57,17.57,47.25,17.36C40.4,17.15,33.19,22.27,30.89,29a14.94,14.94,0,0,0,4,15.56c2.61,2.54,6.05,4,9.63,5.17l-.37.12c-6.31,2-12.83,4.08-17.91,9.41a22.28,22.28,0,0,0-6.19,17.92l1-.08A21.33,21.33,0,0,1,27,60c4.91-5.15,11-7.09,17.49-9.15l1.73-.55,2,.58c1.56.46,3,.89,4.43,1.38,10.15,3.57,17.78,12.43,21.47,25l1-.29C71.22,64.05,63.38,55,52.91,51.28Zm-6.73-2.07C42.24,48,38.37,46.56,35.6,43.86a13.93,13.93,0,0,1-3.76-14.53c2.13-6.22,8.67-11,15-11h.36c6.89.19,13.75,5.93,15.29,12.79S59.08,43.81,53.82,46.3A63.76,63.76,0,0,1,46.18,49.21Z"></path></g></svg>