<svg height='100px' width='100px'  fill="#000000" xmlns="http://www.w3.org/2000/svg" viewBox="0 0 100 100" x="0px" y="0px"><title>Arrows</title><path d="M60.1,42.86l-3-3.4-1.47-1.71-.74-.85a2.51,2.51,0,0,0-.76-.61,2.31,2.31,0,0,0-1.84-.12,3.18,3.18,0,0,0-1.46,1.29L48,41l-2.81,3.53c-.22.28-.5.61-.67.86a2,2,0,0,0-.34.75,2.07,2.07,0,0,0,.33,1.56,1.94,1.94,0,0,0,1.33.81c.23,0,.64,0,1,0H48l4.51,0,9,0h7.32a2.07,2.07,0,0,0,.39,0,1.67,1.67,0,0,0,.69-.3,1.9,1.9,0,0,0,.78-1.3,1.93,1.93,0,0,0-.43-1.49l-2.77-3.56L62,34.62l-5.55-7.11L53.64,24l-.71-.88a2.78,2.78,0,0,0-.74-.69,2.45,2.45,0,0,0-1.93-.26,2.31,2.31,0,0,0-.88.47,5.57,5.57,0,0,0-.7.8l-1.41,1.76L44.46,28.7c-1.89,2.34-3.74,4.71-5.6,7.07L27.74,50l-5.59,7.08-1.4,1.76-.35.44a2.86,2.86,0,0,0-.22.33,1.76,1.76,0,0,0-.2.7,1.86,1.86,0,0,0,.49,1.36,1.77,1.77,0,0,0,1.31.56h-.17c9.36-1.75,18.72-3.49,28.1-5.09l.09,0h.09a3.76,3.76,0,0,1,3.26,5.6l-2.84,4.93-5.69,9.84L41.75,82.4l-1.44,2.45-.72,1.22a2.57,2.57,0,0,0-.43,1.09,2.22,2.22,0,0,0,1.93,2.46c.38,0,.92.05,1.37.08,1.9.1,3.79.18,5.69.3v.2c-1.9.13-3.79.2-5.69.3a14.66,14.66,0,0,1-1.47,0A3.17,3.17,0,0,1,39.43,90,3.28,3.28,0,0,1,38,87.06a3.73,3.73,0,0,1,.52-1.56l.67-1.26,1.34-2.51,2.69-5,5.43-10,2.72-5a1.71,1.71,0,0,0-1.51-2.53l.18,0c-9.36,1.74-18.74,3.33-28.13,4.92l-.09,0h-.08a3.68,3.68,0,0,1-3.65-4,3.61,3.61,0,0,1,.44-1.44,4.71,4.71,0,0,1,.41-.6l.36-.44,1.44-1.74L26.54,49,38.14,35.19c1.94-2.3,3.87-4.6,5.77-6.93l2.86-3.48L48.2,23a6.08,6.08,0,0,1,.8-.88,3.13,3.13,0,0,1,1.1-.58,3.06,3.06,0,0,1,2.42.31,3.43,3.43,0,0,1,.91.83l.71.87L57,27.05,62.82,34l5.82,6.89,2.91,3.45A3.5,3.5,0,0,1,72.4,47,3.6,3.6,0,0,1,71,49.48a3.4,3.4,0,0,1-1.35.62,3.82,3.82,0,0,1-.73.09H61.57l-9,0-4.51,0H46.91a11.6,11.6,0,0,1-1.24,0,3.49,3.49,0,0,1-2.86-4.26,3.41,3.41,0,0,1,.62-1.27c.27-.35.5-.59.75-.89l2.94-3.42,2.94-3.42a9.61,9.61,0,0,1,.81-.88A3.09,3.09,0,0,1,52,35.28a3.18,3.18,0,0,1,2.52.31,3.29,3.29,0,0,1,.94.85l.68.9,1.37,1.79,2.71,3.6Z"></path></svg>