<svg height='100px' width='100px'  fill="#000000" xmlns="http://www.w3.org/2000/svg" viewBox="0 0 95 95" x="0px" y="0px"><title>single-line</title><g><path d="M45,70.06l.44-.9c-7.24-3.5-13.73-9.73-19.3-18.52-4-6.27-7.57-15.5-2.16-23.92,4.29-6.67,12.46-8.62,19-4.54a19.4,19.4,0,0,1,5.5,5.18c-.19.21-.38.42-.56.64a17.42,17.42,0,0,0-3.28,4.89c-.77,2-1,5,.93,6.8s3.73,1.54,4.55,1.1c1.84-1,3-3.9,2.47-6.48a18.74,18.74,0,0,0-2.83-6.85A19.82,19.82,0,0,1,59,21.74c6.14-1.74,10.58,2.78,12.68,7.6A26.66,26.66,0,0,1,69.55,54c-5.18,8.36-13.45,15.62-23.9,21l.46.88C56.72,70.42,65.12,63,70.4,54.52a27.67,27.67,0,0,0,2.24-25.58c-2.27-5.2-7.11-10.08-13.87-8.17a20.75,20.75,0,0,0-9.61,5.85,20.38,20.38,0,0,0-5.66-5.29C36.47,17,27.71,19,23.12,26.18s-3.76,15.65,2.16,25C31,60.12,37.58,66.48,45,70.06Zm4.07-41.85A18,18,0,0,1,51.6,34.5c.4,2.14-.5,4.62-2,5.41-1.27.69-2.54-.13-3.38-.94-1.57-1.5-1.35-4-.68-5.72a16.49,16.49,0,0,1,3.1-4.6C48.79,28.5,48.92,28.35,49.05,28.21Z"></path></g></svg>